# xmcd
#
# Track frame offsets: 
#        150
#        16700
#        31865
#        49547
#        65442
#        83272
#        99477
#        116717
#        131107
#        147645
#        162875
#        181580
#        196325
#
# Disc length: 2864 seconds
#
# Revision: 9
# Processed by: cddbd v1.5.1PL0 Copyright (c) Steve Scherf et al.
# Submitted via: ExactAudioCopy v0.90b4
#
DISCID=9f0b2e0d
DTITLE=Mark Wills - Permanently
DYEAR=2000
DGENRE=Country
TTITLE0=This Can't Be Love
TTITLE1=Rich Man
TTITLE2=The Perfect Conversation
TTITLE3=Still Waiting
TTITLE4=Because I Love You
TTITLE5=Right Here
TTITLE6=Time Machine
TTITLE7=Permanently
TTITLE8=Almost Doesn't Count
TTITLE9=Forget About Love
TTITLE10=In My Arms
TTITLE11=Everything There Is To Know About You
TTITLE12=Back At One
EXTD=
EXTT0=
EXTT1=
EXTT2=
EXTT3=
EXTT4=
EXTT5=
EXTT6=
EXTT7=
EXTT8=
EXTT9=
EXTT10=
EXTT11=
EXTT12=
PLAYORDER=
